<?xml version="1.0" standalone="no"?>
<!DOCTYPE svg PUBLIC "-//W3C//DTD SVG 20010904//EN"
 "http://www.w3.org/TR/2001/REC-SVG-20010904/DTD/svg10.dtd">
<svg version="1.0" xmlns="http://www.w3.org/2000/svg"
 width="2098.000000pt" height="2098.000000pt" viewBox="0 0 2098.000000 2098.000000"
 preserveAspectRatio="xMidYMid meet">

<g transform="translate(0.000000,2098.000000) scale(0.100000,-0.100000)"
fill="#000000" stroke="none">
<path d="M250 10530 l0 -10240 10240 0 10240 0 0 10240 0 10240 -10240 0
-10240 0 0 -10240z m15543 -1654 c51 -210 157 -316 381 -380 49 -15 119 -29
156 -32 38 -4 74 -10 80 -14 9 -6 -9 -131 -71 -495 l-83 -487 -136 6 c-500 26
-812 107 -1077 282 -198 131 -346 348 -403 589 -58 242 -54 56 -57 2750 l-3
2471 592 95 593 95 5 -2405 c5 -2221 7 -2411 23 -2475z m2530 5 c36 -158 104
-255 228 -324 76 -43 216 -85 309 -93 38 -4 74 -10 81 -14 9 -6 -7 -118 -70
-487 -44 -263 -81 -482 -81 -487 0 -11 -232 0 -404 20 -506 57 -858 221 -1051
489 -124 173 -186 371 -215 685 -6 75 -10 940 -10 2505 l0 2391 593 95 592 95
5 -2401 c6 -2200 7 -2406 23 -2474z m-12853 4329 c420 -38 903 -167 1212 -323
88 -44 158 -85 158 -93 0 -13 -348 -995 -355 -1002 -2 -2 -30 10 -62 27 -172
86 -479 193 -683 236 -187 39 -364 57 -580 57 -309 1 -522 -42 -745 -152 -430
-212 -703 -627 -792 -1210 -22 -145 -25 -618 -5 -780 77 -608 296 -987 713
-1231 260 -151 603 -214 1037 -190 429 25 734 94 1067 241 76 34 142 57 146
53 14 -14 340 -976 335 -988 -13 -34 -317 -165 -556 -238 -404 -125 -680 -166
-1172 -174 -336 -6 -499 2 -731 37 -475 72 -880 235 -1212 489 -90 68 -278
255 -354 351 -397 500 -591 1157 -591 1996 0 477 66 857 212 1228 377 957
1167 1543 2241 1660 149 17 561 20 717 6z m3330 -830 l0 -620 715 0 715 0 0
-500 0 -500 -715 0 -715 0 0 -774 c0 -464 4 -815 10 -877 32 -312 123 -490
294 -574 106 -53 193 -68 381 -68 242 1 480 40 688 112 43 15 59 17 62 8 15
-45 164 -912 157 -919 -30 -30 -424 -146 -602 -178 -367 -64 -886 -44 -1195
45 -111 32 -287 115 -390 185 -265 178 -449 465 -529 821 -63 285 -60 151 -63
2307 -2 1079 0 1962 4 1962 5 0 267 43 583 94 316 52 581 95 588 95 9 1 12
-129 12 -619z m4340 -545 c285 -26 593 -79 738 -126 34 -11 62 -22 62 -23 0
-4 -171 -845 -186 -914 -12 -59 -19 -72 -31 -68 -54 21 -530 107 -643 117
-176 15 -410 -1 -622 -42 l-58 -12 0 -1608 0 -1609 -600 0 -600 0 0 1993 0
1993 163 52 c302 97 731 195 992 227 281 35 549 41 785 20z"/>
</g>
</svg>
